<?xml version="1.0" standalone="no"?>
<!DOCTYPE svg PUBLIC "-//W3C//DTD SVG 20010904//EN"
 "http://www.w3.org/TR/2001/REC-SVG-20010904/DTD/svg10.dtd">
<svg version="1.0" xmlns="http://www.w3.org/2000/svg"
 width="1312.000000pt" height="1312.000000pt" viewBox="0 0 1312.000000 1312.000000"
 preserveAspectRatio="xMidYMid meet">
<metadata>
Created by potrace 1.11, written by Peter Selinger 2001-2013
</metadata>
<g transform="translate(0.000000,1312.000000) scale(0.100000,-0.100000)"
fill="#000000" stroke="none">
<path d="M2279 10555 c-3 -2 -34 -6 -69 -9 -172 -15 -426 -84 -575 -157 -33
-16 -65 -29 -72 -29 -7 0 -13 -4 -13 -9 0 -5 -16 -15 -35 -21 -19 -6 -35 -15
-35 -18 0 -4 -15 -13 -32 -21 -18 -8 -35 -17 -38 -20 -3 -3 -37 -27 -76 -54
-39 -26 -84 -58 -100 -72 -16 -14 -42 -36 -57 -48 -58 -45 -189 -181 -247
-257 -19 -24 -43 -53 -53 -65 -10 -11 -26 -33 -34 -50 -9 -16 -19 -32 -23 -35
-4 -3 -15 -18 -24 -35 -9 -16 -26 -46 -38 -65 -99 -164 -196 -427 -224 -605
-9 -54 -11 -64 -13 -67 -8 -11 -16 -161 -16 -298 0 -177 6 -242 35 -375 6 -27
13 -61 15 -75 13 -60 71 -222 108 -300 22 -47 41 -88 41 -92 1 -4 7 -13 14
-20 6 -6 12 -15 12 -19 0 -11 78 -126 90 -134 15 -9 12 -25 -5 -25 -8 0 -15
-4 -15 -10 0 -5 -5 -10 -10 -10 -6 0 -41 -19 -78 -42 -359 -224 -602 -545
-682 -903 -18 -77 -23 -136 -25 -255 -1 -85 2 -171 6 -190 4 -19 9 -51 10 -70
2 -19 6 -39 10 -45 3 -5 7 -17 7 -25 1 -23 7 -44 15 -57 5 -7 6 -13 3 -13 -3
0 8 -31 24 -70 16 -38 26 -70 23 -70 -3 0 0 -8 8 -17 8 -10 21 -31 29 -48 8
-16 27 -49 42 -72 15 -23 28 -44 28 -46 0 -10 59 -76 145 -162 106 -107 251
-205 382 -261 58 -24 93 -45 96 -56 3 -10 2 -18 -3 -18 -8 0 -124 -75 -147
-95 -6 -5 -29 -23 -50 -40 -57 -46 -124 -107 -153 -140 -14 -16 -36 -41 -49
-55 -32 -35 -131 -185 -131 -199 0 -6 -5 -11 -12 -11 -6 0 -9 -3 -5 -6 3 -3
-3 -20 -12 -38 -21 -37 -67 -167 -75 -211 -3 -16 -11 -57 -17 -89 -10 -59 -14
-242 -5 -303 14 -98 29 -167 52 -238 28 -88 131 -305 145 -305 5 0 9 -5 9 -11
0 -9 19 -37 65 -97 6 -7 46 -52 90 -99 81 -86 189 -177 300 -249 129 -85 387
-202 525 -239 8 -2 40 -11 70 -20 61 -18 119 -33 165 -41 17 -3 44 -9 60 -14
17 -5 66 -14 110 -20 44 -6 91 -13 105 -15 77 -11 141 -18 190 -22 87 -7 658
-7 725 0 155 16 196 21 245 30 19 4 52 9 74 12 21 3 42 7 46 10 3 2 22 7 41
10 19 3 45 8 59 10 14 3 66 16 115 30 50 14 95 27 100 29 50 12 255 90 290
109 11 6 22 12 25 12 12 2 125 58 130 63 3 4 25 18 50 31 259 140 530 403 669
651 48 85 121 240 125 264 1 6 4 16 8 21 5 8 22 63 34 108 1 4 2 8 4 10 1 1 3
9 5 17 1 8 8 40 14 70 20 96 21 104 29 160 9 70 8 379 -2 445 -11 78 -15 98
-20 120 -3 11 -10 39 -16 62 -8 35 -35 117 -57 173 -4 8 -7 17 -7 20 -7 27
-100 192 -143 253 -65 93 -212 245 -303 315 -71 54 -195 132 -210 132 -6 0
-10 5 -10 10 0 6 -4 10 -9 10 -4 0 -48 19 -97 42 -49 23 -93 43 -99 44 -5 2
-41 14 -80 28 -116 41 -230 71 -310 81 -16 2 -30 4 -30 5 0 4 -85 17 -175 26
-102 11 -213 12 -987 14 -481 1 -775 5 -778 11 -4 5 -11 7 -16 3 -12 -7 -109
29 -165 62 -48 28 -124 108 -124 130 0 8 -5 14 -12 14 -6 0 -8 3 -5 6 3 4 2
15 -3 25 -10 18 -20 69 -24 123 -4 43 16 123 44 182 26 54 115 154 136 154 8
0 14 4 14 9 0 11 90 55 142 69 36 10 141 9 220 -2 50 -7 110 -16 133 -20 11
-2 42 -7 68 -10 27 -4 59 -9 70 -12 12 -2 45 -6 72 -9 28 -2 70 -7 95 -10 25
-3 94 -7 154 -10 60 -2 111 -6 113 -9 3 -2 17 -1 32 4 15 4 35 3 44 -2 10 -5
17 -5 17 -1 0 4 28 8 63 9 34 0 87 3 117 7 30 4 75 10 100 13 25 3 92 17 150
30 58 14 110 27 115 28 32 7 152 50 159 57 6 5 17 9 25 9 15 0 272 127 281
139 3 4 29 22 58 40 30 19 59 39 65 45 7 6 30 24 52 41 54 40 87 70 155 140
97 100 140 151 140 165 0 6 4 10 8 10 5 0 25 24 44 53 94 137 173 290 209 405
12 37 24 72 28 77 3 6 6 15 7 20 1 6 10 42 19 80 19 77 23 100 30 147 4 31 17
211 17 233 -4 181 -28 363 -66 490 -51 175 -93 267 -184 410 -46 72 -142 189
-176 214 -17 13 -8 17 95 52 63 22 121 40 129 42 8 2 103 32 210 66 185 60
248 90 249 119 1 6 5 12 10 12 21 0 33 104 32 302 0 113 -3 219 -7 235 -15 61
-70 120 -133 141 -25 9 -323 12 -1136 12 -607 -1 -1104 -3 -1106 -5z m261
-1189 c185 -13 336 -81 460 -206 91 -90 137 -164 181 -290 50 -141 60 -343 25
-515 -9 -43 -50 -150 -60 -157 -6 -4 -8 -8 -3 -8 4 0 -4 -18 -18 -40 -14 -22
-25 -42 -25 -46 0 -8 -41 -57 -96 -116 -55 -57 -162 -129 -229 -152 -27 -10
-59 -22 -70 -27 -11 -5 -36 -11 -55 -15 -19 -3 -46 -8 -60 -11 -45 -8 -290 -2
-290 7 0 3 -8 6 -17 7 -31 2 -89 20 -123 37 -18 9 -39 16 -47 16 -7 0 -13 3
-13 8 0 4 -15 14 -32 21 -18 8 -51 28 -72 45 -47 36 -131 116 -123 116 3 0 -8
14 -24 31 -16 17 -37 48 -46 68 -9 20 -20 38 -23 41 -12 9 -67 164 -75 212
-15 83 -20 234 -11 298 14 93 27 141 52 198 12 28 20 52 17 52 -3 0 0 8 8 18
8 9 23 33 34 52 10 19 24 41 29 47 6 7 24 30 41 51 47 61 204 181 248 190 4 1
21 9 37 17 16 8 32 15 35 15 3 -1 30 6 60 14 29 9 80 19 112 22 32 4 59 8 61
9 1 1 12 1 25 -1 12 -2 51 -5 87 -8z m230 -4450 c221 -19 397 -81 505 -180 21
-20 42 -36 45 -36 14 0 90 -130 108 -185 27 -79 24 -232 -5 -320 -4 -11 -7
-22 -8 -25 0 -3 -13 -30 -29 -60 -57 -112 -168 -218 -306 -289 -74 -39 -226
-94 -285 -104 -143 -24 -180 -29 -250 -32 -44 -2 -82 -5 -85 -6 -3 -1 -9 -1
-14 0 -32 7 -86 5 -86 -2 0 -4 -5 -5 -11 -1 -6 3 -35 8 -66 10 -416 25 -743
219 -813 484 -7 25 -15 52 -18 60 -7 21 -10 173 -3 185 3 6 7 19 8 30 7 42 26
86 62 142 70 109 186 200 330 262 51 22 64 25 121 36 60 11 224 22 425 30 82
3 150 7 151 8 4 4 149 -1 224 -7z"/>
<path d="M6738 10555 c-1 -1 -37 -6 -77 -9 -41 -4 -98 -12 -125 -17 -28 -5
-64 -12 -81 -15 -16 -2 -64 -14 -105 -25 -41 -11 -82 -22 -90 -24 -48 -10
-233 -85 -345 -141 -127 -63 -275 -153 -309 -187 -10 -9 -21 -17 -25 -17 -4 0
-21 -12 -37 -26 -16 -14 -40 -33 -54 -42 -66 -45 -274 -255 -340 -343 -14 -18
-32 -40 -40 -49 -27 -29 -120 -168 -120 -179 0 -6 -4 -11 -8 -11 -7 0 -26 -31
-88 -150 -11 -19 -22 -37 -27 -38 -4 -2 -5 -7 -2 -12 3 -5 0 -14 -7 -22 -7 -7
-14 -18 -15 -23 -1 -6 -23 -59 -48 -119 -25 -59 -47 -118 -50 -130 -2 -11 -15
-56 -29 -98 -13 -43 -23 -78 -20 -78 2 0 -1 -12 -7 -27 -7 -16 -13 -39 -14
-53 -2 -14 -4 -25 -5 -25 -1 0 -3 -9 -4 -20 -2 -11 -6 -38 -10 -60 -34 -199
-40 -530 -12 -675 3 -14 7 -43 10 -65 13 -115 55 -279 112 -435 19 -52 36 -99
37 -105 11 -43 181 -363 218 -410 5 -5 37 -48 71 -95 34 -47 66 -90 72 -96 6
-6 35 -38 64 -72 73 -84 172 -179 266 -255 21 -18 44 -37 51 -44 7 -7 15 -9
19 -6 3 4 6 1 6 -5 0 -5 17 -21 38 -33 20 -13 41 -29 45 -36 4 -7 12 -13 16
-13 5 0 53 -27 107 -60 54 -33 104 -60 111 -60 7 0 13 -3 13 -7 0 -5 21 -17
48 -27 26 -11 74 -32 107 -47 33 -15 74 -31 90 -35 17 -4 35 -10 40 -14 23
-16 288 -83 375 -94 25 -3 56 -8 70 -11 33 -6 224 -17 285 -16 76 2 232 12
254 16 11 2 41 7 68 11 59 8 65 9 128 24 28 6 60 14 71 16 24 4 150 42 174 51
8 3 20 7 25 8 23 6 152 60 183 77 18 10 39 18 46 18 8 0 16 4 18 8 2 4 23 18
48 30 90 44 302 181 341 221 8 9 28 25 43 36 15 11 51 41 79 67 29 26 55 48
60 48 4 0 7 4 7 9 0 5 20 29 45 53 25 24 73 77 107 118 34 41 65 77 68 80 13
12 120 172 169 252 29 48 70 127 92 175 22 49 44 97 49 108 29 62 64 164 95
275 10 36 21 69 24 75 3 5 6 16 6 25 1 8 6 35 10 60 5 25 9 50 10 55 1 6 3 12
4 15 1 3 4 21 7 40 2 19 6 53 10 75 21 141 21 444 -1 585 -3 19 -7 51 -10 70
-10 73 -14 89 -41 205 -11 47 -19 75 -27 95 -3 8 -13 40 -23 70 -32 104 -119
305 -164 380 -4 8 -35 59 -66 113 -32 53 -62 97 -66 97 -4 0 -8 5 -8 11 0 10
-53 84 -70 99 -4 3 -13 15 -21 27 -27 39 -123 145 -197 217 -115 111 -121 116
-129 116 -4 0 -24 16 -43 35 -19 19 -37 35 -41 35 -4 0 -14 6 -22 14 -16 17
-193 134 -222 148 -11 5 -38 20 -60 33 -22 14 -47 27 -55 31 -8 3 -40 17 -70
31 -30 14 -84 36 -120 50 -36 14 -74 29 -85 34 -11 5 -29 11 -40 12 -11 2 -27
7 -35 10 -21 9 -159 45 -195 52 -16 2 -40 7 -52 9 -11 3 -43 8 -70 12 -26 3
-57 9 -68 11 -23 5 -411 13 -417 8z m-128 -1512 c52 -27 124 -66 160 -85 36
-20 130 -70 210 -113 80 -42 149 -81 154 -86 6 -5 18 -9 28 -9 10 0 18 -4 18
-10 0 -5 4 -10 8 -10 5 0 109 -54 232 -120 122 -66 224 -120 225 -120 16 0
204 -119 225 -143 30 -33 59 -101 54 -127 -12 -60 -16 -74 -27 -85 -7 -7 -19
-21 -28 -31 -30 -36 -62 -56 -183 -120 -66 -36 -128 -69 -136 -74 -41 -27 -90
-50 -90 -43 0 5 -4 3 -8 -3 -4 -6 -47 -32 -97 -59 -193 -104 -222 -119 -275
-148 -30 -16 -61 -34 -67 -40 -7 -5 -13 -6 -13 -1 0 5 -4 5 -8 -1 -4 -5 -50
-32 -102 -59 -52 -27 -107 -58 -122 -68 -16 -11 -28 -16 -28 -12 0 3 -6 2 -13
-4 -21 -18 -186 -103 -230 -118 -54 -19 -124 -20 -168 -1 -33 13 -99 73 -99
88 0 4 -5 20 -11 36 -7 15 -14 42 -17 58 -2 17 -5 337 -5 712 l-1 681 32 64
c36 73 80 108 145 115 23 3 43 6 45 8 9 9 109 -29 192 -72z"/>
<path d="M11118 10555 c-2 -2 -41 -6 -88 -9 -139 -10 -223 -17 -250 -22 -14
-3 -45 -7 -70 -10 -96 -9 -117 -12 -175 -23 -33 -5 -78 -12 -100 -15 -43 -5
-91 -14 -115 -21 -8 -3 -32 -7 -54 -11 -21 -3 -48 -8 -60 -10 -11 -3 -41 -9
-66 -14 -25 -5 -55 -12 -67 -15 -13 -3 -31 -7 -41 -9 -9 -2 -37 -9 -62 -16
-25 -7 -49 -13 -55 -14 -5 -1 -14 -4 -20 -8 -5 -3 -25 -9 -42 -13 -18 -3 -33
-11 -33 -16 0 -6 -4 -8 -9 -5 -5 3 -27 -13 -50 -35 -67 -67 -73 -129 -36 -329
4 -19 8 -44 9 -55 2 -11 6 -33 9 -50 4 -16 9 -46 12 -65 6 -43 10 -71 41 -239
14 -74 32 -148 42 -165 56 -100 127 -120 271 -77 18 6 36 10 40 9 3 -1 13 1
21 5 14 5 84 21 143 32 15 3 37 7 50 9 20 4 63 12 122 21 356 58 775 90 930
70 67 -9 100 -14 103 -16 1 -1 5 -2 10 -4 46 -13 126 -54 159 -82 14 -13 30
-23 34 -23 4 0 10 -8 13 -17 3 -10 16 -29 29 -43 31 -33 81 -166 97 -255 7
-38 14 -108 16 -155 2 -47 4 -86 5 -87 1 -2 1 -12 1 -23 0 -51 -1 -52 -29 -45
-30 7 -30 7 -119 29 -62 15 -103 25 -139 31 -11 2 -31 6 -44 9 -13 3 -49 8
-80 12 -31 3 -65 8 -76 10 -88 18 -395 23 -555 11 -120 -10 -238 -25 -250 -32
-3 -1 -27 -6 -54 -9 -27 -4 -57 -11 -67 -17 -10 -5 -22 -9 -26 -8 -4 1 -10 0
-13 -1 -3 -1 -13 -3 -22 -6 -30 -7 -86 -23 -138 -39 -3 -1 -12 -5 -20 -8 -8
-3 -42 -16 -75 -28 -33 -12 -67 -28 -76 -35 -8 -8 -21 -14 -27 -14 -6 0 -49
-22 -96 -50 -47 -27 -87 -50 -90 -50 -5 0 -28 -17 -60 -45 -6 -5 -29 -23 -51
-39 -46 -34 -171 -158 -200 -200 -11 -16 -27 -36 -36 -45 -80 -84 -209 -388
-223 -526 -3 -22 -5 -40 -6 -40 -5 0 -9 -70 -11 -180 -3 -105 5 -239 17 -300
2 -10 6 -37 10 -60 3 -22 7 -44 8 -50 2 -5 6 -23 10 -40 31 -133 113 -331 187
-454 57 -95 200 -253 286 -317 21 -16 44 -35 51 -41 15 -15 127 -81 187 -111
85 -43 225 -96 225 -86 0 4 6 2 13 -4 6 -5 26 -13 42 -16 17 -3 41 -9 55 -12
36 -8 66 -14 95 -18 14 -2 42 -7 62 -10 118 -19 378 -20 488 -2 65 10 116 18
138 21 12 1 42 8 67 15 25 8 52 14 60 15 8 1 24 5 35 9 11 4 34 13 50 19 17 6
35 12 42 13 43 7 349 158 373 185 3 3 28 20 55 39 53 35 179 133 206 159 9 9
31 29 48 44 31 27 33 28 46 10 8 -10 15 -21 15 -25 0 -4 12 -33 26 -65 14 -32
37 -83 51 -113 62 -138 95 -187 149 -217 15 -8 98 -12 264 -13 243 -1 244 -1
297 25 37 19 63 41 85 73 31 45 33 51 35 160 1 62 5 117 8 122 3 6 1 10 -5 10
-6 0 -9 4 -6 8 5 8 7 66 5 152 -1 25 0 50 1 55 1 6 2 15 1 20 -1 6 -1 100 -1
210 1 110 1 207 1 215 0 8 0 47 0 85 0 77 0 80 -3 128 -2 17 0 42 4 54 4 12 3
25 -3 28 -5 4 -7 10 -5 14 5 7 7 67 5 151 -1 25 0 50 1 55 1 6 2 15 1 20 -1 6
-1 210 -1 455 1 245 1 451 1 458 -1 13 -1 82 -1 122 0 14 -1 34 -4 45 -2 11 1
28 6 38 5 9 5 17 1 17 -4 0 -9 42 -9 93 -2 142 -23 390 -39 457 -3 14 -7 41
-10 60 -3 19 -7 46 -10 60 -3 14 -8 35 -10 48 -67 309 -196 558 -382 733 -67
62 -184 149 -202 149 -5 0 -11 3 -13 8 -8 18 -298 141 -298 126 0 -2 -13 2
-30 11 -16 9 -30 13 -30 11 0 -3 -11 -1 -24 4 -13 5 -44 12 -67 15 -24 4 -62
10 -84 15 -36 8 -74 13 -190 27 -43 5 -563 12 -567 8z m300 -2549 c17 -3 45
-8 62 -11 93 -16 280 -68 351 -98 l27 -11 0 -307 c-1 -342 4 -318 -74 -401
-74 -78 -227 -198 -252 -198 -6 0 -12 -3 -14 -7 -5 -13 -128 -69 -198 -92
-100 -33 -227 -44 -335 -29 -109 15 -248 87 -320 165 -171 187 -197 511 -57
714 41 61 123 142 164 163 18 10 52 28 76 41 23 13 42 22 42 18 0 -3 6 -1 13
5 6 5 32 15 57 22 44 12 54 14 135 29 45 8 273 6 323 -3z"/>
</g>
</svg>
