<?xml version="1.0" encoding="UTF-8"?>
<svg width="500" height="500" viewBox="0 0 500 500" xmlns="http://www.w3.org/2000/svg">
  <defs>
    <!-- Background gradient -->
    <linearGradient id="bgGrad" x1="0%" y1="0%" x2="100%" y2="100%">
      <stop offset="0%" style="stop-color:#5bc0eb"/>
      <stop offset="35%" style="stop-color:#9d89e8"/>
      <stop offset="70%" style="stop-color:#fb4fcf"/>
      <stop offset="100%" style="stop-color:#faff00"/>
    </linearGradient>
    
    <!-- Glow effect -->
    <filter id="glow" x="-20%" y="-20%" width="140%" height="140%">
      <feGaussianBlur stdDeviation="4" result="blur"/>
      <feMerge>
        <feMergeNode in="blur"/>
        <feMergeNode in="SourceGraphic"/>
      </feMerge>
    </filter>
  </defs>
  
  <!-- Rounded square background -->
  <rect x="0" y="0" width="500" height="500" rx="80" fill="url(#bgGrad)"/>
  
  <!-- Goa Logo - centered -->
  <g transform="translate(95, 175) scale(3.8)" filter="url(#glow)">
    <!-- g letter -->
    <path fill="#ffffff" d="M0,26.358 C0,31.422 4.023,33.295 5.202,33.642 L5.202,33.85 C4.509,34.266 1.04,36.277 1.04,40.439 C1.04,44.879 4.925,49.942 15.191,49.942 C25.249,49.942 30.382,44.532 30.382,38.15 C30.382,32.046 25.249,28.439 18.936,28.439 L10.058,28.439 C8.532,28.439 7.283,27.538 7.283,26.081 C7.283,24.416 8.879,23.445 9.85,23.445 C10.96,23.445 12.763,24 15.399,24 C22.682,24 27.26,18.59 27.26,13.11 C27.26,8.185 24.486,6.035 24.486,6.035 L28.37,4.786 C28.855,4.647 29.133,4.092 29.133,3.607 L29.133,1.318 C29.133,0.555 28.578,0 27.815,0 L15.191,0 C8.324,0 3.121,5.618 3.121,12.069 C3.121,16.231 5.202,18.59 5.202,18.59 C5.202,18.59 0,20.948 0,26.358 Z M9.017,38.913 C9.017,36.763 11.168,35.792 12,35.514 C13.457,35.306 14.983,35.237 16.509,35.237 C20.601,35.237 21.572,37.387 21.572,38.636 C21.572,41.272 19.006,43.006 15.121,43.006 C11.376,43.006 9.017,41.341 9.017,38.913 Z M10.543,12.416 C10.543,9.503 12.624,7.422 15.399,7.422 C18.243,7.422 20.185,9.503 20.185,12.416 C20.185,15.329 18.243,17.41 15.399,17.41 C12.624,17.41 10.543,15.329 10.543,12.416 Z"/>
    <!-- o letter with play button -->
    <g transform="translate(28, 0)">
      <path fill="#ffffff" d="M0.902,14.497 C0.902,22.474 7.283,29.133 15.121,29.133 C22.96,29.133 29.341,22.474 29.341,14.497 C29.341,6.659 22.96,0 15.121,0 C7.283,0 0.902,6.659 0.902,14.497 Z M20.577,13.368 C21.842,14.046 21.843,15.144 20.577,15.822 L13.019,19.871 C11.754,20.549 10.728,19.933 10.728,18.498 L10.728,10.693 C10.728,9.257 11.753,8.641 13.019,9.319 L20.577,13.368 Z"/>
    </g>
    <!-- a letter -->
    <g transform="translate(58, 0)">
      <path fill="#ffffff" d="M0.092,19.63 C0.092,25.526 3.908,29.133 9.457,29.133 C13.757,29.133 16.324,27.052 17.919,25.595 L18.751,27.468 C19.098,28.231 19.445,28.439 19.931,28.439 L22.428,28.439 C23.121,28.439 23.746,27.815 23.746,27.121 L23.746,12.069 C23.746,4.509 21.734,0 13.064,0 C8.624,0 4.185,1.11 3.63,1.318 C3.006,1.526 2.451,2.012 2.659,3.052 L3.283,6.659 C3.422,7.561 3.908,8.185 4.879,7.908 C6.474,7.422 10.081,6.867 12.647,6.867 C15.214,6.867 16.324,8.116 16.254,11.653 C16.254,11.653 13.965,10.89 11.191,10.89 C4.116,10.89 0.092,14.705 0.092,19.63 Z M7.723,19.63 C7.723,17.41 9.526,15.884 12.231,15.884 C14.243,15.884 16.116,16.717 16.116,16.717 L16.116,20.532 C15.699,21.364 13.549,23.237 11.329,23.237 C9.179,23.237 7.723,21.711 7.723,19.63 Z"/>
    </g>
  </g>
</svg>
